<svg width="36" height="37" viewBox="0 0 36 37" fill="none" xmlns="http://www.w3.org/2000/svg">
<path d="M29.5804 32.4107C26.4585 35.0665 22.4086 36.7521 18 36.7521C11.4398 36.7521 5.68113 33.1118 2.55933 27.8001L3.72806 22.3736L8.90854 21.4048C10.1109 25.3142 13.7389 28.1826 18 28.1826C20.0671 28.1826 21.9867 27.5239 23.5687 26.3554L28.5468 27.1202L29.5804 32.4107Z" fill="#59C36A"/>
<path d="M29.5805 32.4106L28.5469 27.1202L23.5688 26.3553C21.9867 27.5239 20.0671 28.1825 18 28.1825V36.7521C22.4087 36.7521 26.4586 35.0665 29.5805 32.4106Z" fill="#00A66C"/>
<path d="M8.50781 18.6215C8.50781 19.5988 8.65547 20.5336 8.90859 21.4048L2.55938 27.8001C0.977344 25.123 0 21.9784 0 18.6215C0 15.2644 0.977344 12.12 2.55938 9.44287L7.65513 10.3262L8.90859 15.8382C8.65547 16.7092 8.50781 17.6441 8.50781 18.6215Z" fill="#FFDA2D"/>
<path d="M36 18.6215C36 24.1456 33.4618 29.0962 29.5805 32.4107L23.5688 26.3553C24.7921 25.4629 25.8258 24.2731 26.5008 22.8708H18C17.4093 22.8708 16.9453 22.4033 16.9453 21.8085V15.4345C16.9453 14.8395 17.4093 14.3721 18 14.3721H34.65C35.1563 14.3721 35.5992 14.7333 35.6836 15.2432C35.8945 16.3481 36 17.4953 36 18.6215Z" fill="#4086F4"/>
<path d="M26.5009 22.8708C25.8259 24.2731 24.7921 25.4629 23.5688 26.3553L29.5805 32.4107C33.4618 29.0962 36 24.1457 36 18.6215C36 17.4953 35.8945 16.3481 35.6835 15.2432C35.5992 14.7333 35.1562 14.3721 34.6499 14.3721H18V22.8708H26.5009Z" fill="#376AED"/>
<path d="M29.8757 5.55465C29.8968 5.85211 29.7703 6.12839 29.5804 6.34078L25.0664 10.8663C24.7078 11.2488 24.1172 11.2913 23.6953 10.9726C22.0288 9.71909 20.0671 9.06044 18 9.06044C13.7389 9.06044 10.1109 11.9287 8.90854 15.8382L2.55933 9.44289C5.68113 4.13119 11.4398 0.490906 18 0.490906C22.1976 0.490906 26.2898 2.049 29.496 4.76852C29.7281 4.95981 29.8546 5.2572 29.8757 5.55465Z" fill="#FF7F23"/>
<path d="M23.6953 10.9726C24.1172 11.2914 24.7078 11.2488 25.0663 10.8664L29.5804 6.34078C29.7703 6.12839 29.8969 5.85218 29.8757 5.55465C29.8546 5.25713 29.7281 4.95981 29.496 4.76852C26.2899 2.049 22.1977 0.490906 18 0.490906V9.06044C20.0671 9.06044 22.0288 9.71909 23.6953 10.9726Z" fill="#F03800"/>
</svg>
