<svg width="18" height="18" viewBox="0 0 18 18" fill="none" xmlns="http://www.w3.org/2000/svg">
<path d="M16 2.45459H2C0.895431 2.45459 0 3.35002 0 4.45459V13.5455C0 14.6501 0.89543 15.5455 2 15.5455H16C17.1046 15.5455 18 14.6501 18 13.5455V4.45459C18 3.35002 17.1046 2.45459 16 2.45459Z" fill="#F3F3FF"/>
<circle cx="6.54544" cy="8.99997" r="4.09091" fill="#EB001A"/>
<circle cx="11.4546" cy="8.99997" r="4.09091" fill="#F79E1C"/>
<path d="M9.00001 12.273C9.99362 11.5266 10.6364 10.3384 10.6364 8.99996C10.6364 7.66152 9.99362 6.4733 9.00001 5.72693C8.0064 6.4733 7.36365 7.66152 7.36365 8.99996C7.36365 10.3384 8.0064 11.5266 9.00001 12.273Z" fill="#FF5F00"/>
</svg>
