<svg width="23" height="16" viewBox="0 0 23 16" fill="none" xmlns="http://www.w3.org/2000/svg">
<path d="M22.838 7.43286C22.6328 7.13849 17.7427 0.225065 11.4973 0.225065C5.2518 0.225065 0.361534 7.13849 0.156524 7.43258C-0.0378517 7.71185 -0.0378517 8.09062 0.156524 8.36989C0.361534 8.66426 5.2518 15.5777 11.4973 15.5777C17.7427 15.5777 22.6328 8.66421 22.838 8.37012C23.0326 8.0909 23.0326 7.71185 22.838 7.43286ZM11.4973 13.9895C6.89681 13.9895 2.91233 9.40091 1.73284 7.90083C2.91081 6.39944 6.88694 1.81326 11.4973 1.81326C16.0975 1.81326 20.0817 6.40104 21.2617 7.90191C20.0837 9.40326 16.1076 13.9895 11.4973 13.9895Z" fill="#E9EEF8"/>
<path d="M11.4972 3.13675C8.99157 3.13675 6.953 5.27398 6.953 7.90087C6.953 10.5278 8.99157 12.665 11.4972 12.665C14.0028 12.665 16.0414 10.5278 16.0414 7.90087C16.0414 5.27398 14.0028 3.13675 11.4972 3.13675ZM11.4972 11.0769C9.82668 11.0769 8.46776 9.65217 8.46776 7.90087C8.46776 6.14956 9.82673 4.72482 11.4972 4.72482C13.1676 4.72482 14.5266 6.14956 14.5266 7.90087C14.5266 9.65217 13.1677 11.0769 11.4972 11.0769Z" fill="#E9EEF8"/>
</svg>
